# xmcd
# Track frame offsets:
# 151
# 17259
# 36157
# 47754
# 60316
# 73187
# 89686
# 101436
# 112959
# 128298
#
# Disc length: 1894 seconds
# Revision: 0
# Processed by: cddbd v1.4PL0 Copyright (c) Steve Scherf et al.
# Submitted via: VisiTrax 2.9.5.180 - For more info visit www.synapsa.com
#
DISCID=7507640a
DTITLE=Lanny Murphy - Never looking for the end
DYEAR=1998
DGENRE=
TTITLE0=My memory ain't what it used to be
TTITLE1=Say what you mean
TTITLE2=Drinkin' doubles
TTITLE3=Bedroom ballad
TTITLE4=Never looking for the end
TTITLE5=I can't put my arms around a memory
TTITLE6=Honky tonk queen
TTITLE7=Haven't you heard
TTITLE8=The rifgt buttons
TTITLE9=All you gotta do
EXTD=
EXTT0=
EXTT1=
EXTT2=
EXTT3=
EXTT4=
EXTT5=
EXTT6=
EXTT7=
EXTT8=
EXTT9=
PLAYORDER=
